<svg xmlns="http://www.w3.org/2000/svg" version="1.1" xmlns:xlink="http://www.w3.org/1999/xlink" xmlns:svgjs="http://svgjs.dev/svgjs" viewBox="0 0 800 800" preserveAspectRatio="xMidYMid slice"><defs><pattern id="pppixelate-pattern" width="20" height="20" patternUnits="userSpaceOnUse" patternTransform="translate(-327 277) scale(0.7) rotate(0)" shape-rendering="crispEdges">
    <rect width="1" height="1" x="2" y="4" fill="hsl(0, 0%, 100%)"></rect><rect width="1" height="1" x="3" y="4" fill="hsl(0, 0%, 100%)"></rect><rect width="1" height="1" x="4" y="4" fill="hsl(0, 0%, 100%)"></rect><rect width="1" height="1" x="5" y="4" fill="hsl(0, 0%, 100%)"></rect><rect width="1" height="1" x="7" y="4" fill="hsl(0, 0%, 100%)"></rect><rect width="1" height="1" x="8" y="4" fill="hsl(0, 0%, 100%)"></rect><rect width="1" height="1" x="9" y="4" fill="hsl(0, 0%, 100%)"></rect><rect width="1" height="1" x="10" y="4" fill="hsl(0, 0%, 100%)"></rect><rect width="1" height="1" x="12" y="4" fill="hsl(0, 0%, 100%)"></rect><rect width="1" height="1" x="16" y="4" fill="hsl(0, 0%, 100%)"></rect><rect width="1" height="1" x="2" y="5" fill="hsl(0, 0%, 100%)"></rect><rect width="1" height="1" x="5" y="5" fill="hsl(0, 0%, 100%)"></rect><rect width="1" height="1" x="7" y="5" fill="hsl(0, 0%, 100%)"></rect><rect width="1" height="1" x="10" y="5" fill="hsl(0, 0%, 100%)"></rect><rect width="1" height="1" x="12" y="5" fill="hsl(0, 0%, 100%)"></rect><rect width="1" height="1" x="13" y="5" fill="hsl(0, 0%, 100%)"></rect><rect width="1" height="1" x="15" y="5" fill="hsl(0, 0%, 100%)"></rect><rect width="1" height="1" x="16" y="5" fill="hsl(0, 0%, 100%)"></rect><rect width="1" height="1" x="2" y="6" fill="hsl(0, 0%, 100%)"></rect><rect width="1" height="1" x="3" y="6" fill="hsl(0, 0%, 100%)"></rect><rect width="1" height="1" x="4" y="6" fill="hsl(0, 0%, 100%)"></rect><rect width="1" height="1" x="5" y="6" fill="hsl(0, 0%, 100%)"></rect><rect width="1" height="1" x="7" y="6" fill="hsl(0, 0%, 100%)"></rect><rect width="1" height="1" x="10" y="6" fill="hsl(0, 0%, 100%)"></rect><rect width="1" height="1" x="12" y="6" fill="hsl(0, 0%, 100%)"></rect><rect width="1" height="1" x="14" y="6" fill="hsl(0, 0%, 100%)"></rect><rect width="1" height="1" x="16" y="6" fill="hsl(0, 0%, 100%)"></rect><rect width="1" height="1" x="2" y="7" fill="hsl(0, 0%, 100%)"></rect><rect width="1" height="1" x="3" y="7" fill="hsl(0, 0%, 100%)"></rect><rect width="1" height="1" x="7" y="7" fill="hsl(0, 0%, 100%)"></rect><rect width="1" height="1" x="8" y="7" fill="hsl(0, 0%, 100%)"></rect><rect width="1" height="1" x="9" y="7" fill="hsl(0, 0%, 100%)"></rect><rect width="1" height="1" x="10" y="7" fill="hsl(0, 0%, 100%)"></rect><rect width="1" height="1" x="12" y="7" fill="hsl(0, 0%, 100%)"></rect><rect width="1" height="1" x="16" y="7" fill="hsl(0, 0%, 100%)"></rect><rect width="1" height="1" x="2" y="8" fill="hsl(0, 0%, 100%)"></rect><rect width="1" height="1" x="4" y="8" fill="hsl(0, 0%, 100%)"></rect><rect width="1" height="1" x="7" y="8" fill="hsl(0, 0%, 100%)"></rect><rect width="1" height="1" x="10" y="8" fill="hsl(0, 0%, 100%)"></rect><rect width="1" height="1" x="12" y="8" fill="hsl(0, 0%, 100%)"></rect><rect width="1" height="1" x="16" y="8" fill="hsl(0, 0%, 100%)"></rect><rect width="1" height="1" x="2" y="9" fill="hsl(0, 0%, 100%)"></rect><rect width="1" height="1" x="5" y="9" fill="hsl(0, 0%, 100%)"></rect><rect width="1" height="1" x="7" y="9" fill="hsl(0, 0%, 100%)"></rect><rect width="1" height="1" x="10" y="9" fill="hsl(0, 0%, 100%)"></rect><rect width="1" height="1" x="12" y="9" fill="hsl(0, 0%, 100%)"></rect><rect width="1" height="1" x="16" y="9" fill="hsl(0, 0%, 100%)"></rect>
  </pattern></defs><rect width="100%" height="100%" fill="url(#pppixelate-pattern)"></rect></svg>